<svg width="512" height="512" viewBox="0 0 512 512" fill="none" xmlns="http://www.w3.org/2000/svg">
  <rect width="512" height="512" fill="#F2F2F2"/>
  <path
    d="M256 141C190.8 141 142 190.3 142 256.4C142 322.4 190.8 371.7 256 371.7C278.1 371.7 298.4 366.3 315.2 356.8L352.4 394C361.6 403.2 376.5 403.2 385.7 394C394.8 384.8 394.8 369.9 385.7 360.7L349 324C363 304.6 371 280.2 371 256.4C371 190.3 321.2 141 256 141ZM256 199.5C289.2 199.5 312.6 223.3 312.6 256.4C312.6 289.4 289.2 313.2 256 313.2C222.8 313.2 199.4 289.4 199.4 256.4C199.4 223.3 222.8 199.5 256 199.5Z"
    fill="#231F20"
  />
  <circle cx="370" cy="370" r="35" fill="#231F20"/>
</svg>
